HIERARCHY
ROOT reference
{
  OFFSET 0 0 0
  CHANNELS 6 Xposition Yposition Zposition Zrotation Xrotation Yrotation
  JOINT Hips
  {
    OFFSET 352.076 86.5813 226.294
    CHANNELS 3 Zrotation Xrotation Yrotation
    JOINT RightUpLeg
    {
      OFFSET -9.24446 -1.53332 -0.0100408
      CHANNELS 3 Zrotation Xrotation Yrotation
      JOINT RightLeg
      {
        OFFSET 0.0379954 -41.8775 0.0555708
        CHANNELS 3 Zrotation Xrotation Yrotation
        JOINT RightFoot
        {
          OFFSET 0.0737403 -43.7597 -0.208372
          CHANNELS 3 Zrotation Xrotation Yrotation
          End Site
          {
            OFFSET 0 -7.69 17.5
          }
        }
      }
    }
    JOINT LeftUpLeg
    {
      OFFSET 9.31004 -1.65148 -0.0333589
      CHANNELS 3 Zrotation Xrotation Yrotation
      JOINT LeftLeg
      {
        OFFSET 0.0881386 -41.8624 -0.0616493
        CHANNELS 3 Zrotation Xrotation Yrotation
        JOINT LeftFoot
        {
          OFFSET 0.763074 -39.9619 0.249975
          CHANNELS 3 Zrotation Xrotation Yrotation
          End Site
          {
            OFFSET 0 -7.69 17.5
          }
        }
      }
    }
    JOINT Spine
    {
      OFFSET 0.105097 14.2958 0.096313
      CHANNELS 3 Zrotation Xrotation Yrotation
      JOINT Spine1
      {
        OFFSET 0.0609256 9.72986 0.0283835
        CHANNELS 3 Zrotation Xrotation Yrotation
        JOINT Spine2
        {
          OFFSET 0.0349843 10.1145 -0.0203086
          CHANNELS 3 Zrotation Xrotation Yrotation
          JOINT Spine3
          {
            OFFSET 0.0323734 9.71864 0.0196425
            CHANNELS 3 Zrotation Xrotation Yrotation
            JOINT Neck
            {
              OFFSET 0.219168 10.3708 0.0833364
              CHANNELS 3 Zrotation Xrotation Yrotation
              JOINT Head
              {
                OFFSET 0.200748 9.48753 0.0966912
                CHANNELS 3 Zrotation Xrotation Yrotation
                End Site
                {
                  OFFSET 0 15.95 0
                }
              }
            }
            JOINT RightShoulder
            {
              OFFSET -3.14734 6.94135 0.063802
              CHANNELS 3 Zrotation Xrotation Yrotation
              JOINT RightArm
              {
                OFFSET -12.765 0.137663 0.228635
                CHANNELS 3 Zrotation Xrotation Yrotation
                JOINT RightForeArm
                {
                  OFFSET -26.5344 -0.389186 -0.00603507
                  CHANNELS 3 Zrotation Xrotation Yrotation
                  JOINT RightHand
                  {
                    OFFSET -26.1352 -0.0585664 0.0704552
                    CHANNELS 3 Zrotation Xrotation Yrotation
                    JOINT RightHandThumb1
                    {
                      OFFSET -2.48905 0.190105 3.12053
                      CHANNELS 3 Zrotation Xrotation Yrotation
                      JOINT RightHandThumb2
                      {
                        OFFSET -3.68274 0 0
                        CHANNELS 3 Zrotation Xrotation Yrotation
                        JOINT RightHandThumb3
                        {
                          OFFSET -2.55832 0 0
                          CHANNELS 3 Zrotation Xrotation Yrotation
                          End Site
                          {
                            OFFSET -2.194 0 0
                          }
                        }
                      }
                    }
                    JOINT RightInHandIndex
                    {
                      OFFSET -3.22368 0.508421 1.97842
                      CHANNELS 3 Zrotation Xrotation Yrotation
                      JOINT RightHandIndex1
                      {
                        OFFSET -5.21684 -0.091368 0.999158
                        CHANNELS 3 Zrotation Xrotation Yrotation
                        JOINT RightHandIndex2
                        {
                          OFFSET -3.61937 0 0
                          CHANNELS 3 Zrotation Xrotation Yrotation
                          JOINT RightHandIndex3
                          {
                            OFFSET -2.0521 0 0
                            CHANNELS 3 Zrotation Xrotation Yrotation
                            End Site
                            {
                              OFFSET -1.805 0 0
                            }
                          }
                        }
                      }
                    }
                    JOINT RightInHandMiddle
                    {
                      OFFSET -3.38211 0.517263 0.756737
                      CHANNELS 3 Zrotation Xrotation Yrotation
                      JOINT RightHandMiddle1
                      {
                        OFFSET -5.17411 -0.084 0.313895
                        CHANNELS 3 Zrotation Xrotation Yrotation
                        JOINT RightHandMiddle2
                        {
                          OFFSET -3.94947 0 0
                          CHANNELS 3 Zrotation Xrotation Yrotation
                          JOINT RightHandMiddle3
                          {
                            OFFSET -2.47579 0 0
                            CHANNELS 3 Zrotation Xrotation Yrotation
                            End Site
                            {
                              OFFSET -1.975 0 0
                            }
                          }
                        }
                      }
                    }
                    JOINT RightInHandRing
                    {
                      OFFSET -3.36516 0.537895 -0.128947
                      CHANNELS 3 Zrotation Xrotation Yrotation
                      JOINT RightHandRing1
                      {
                        OFFSET -4.63474 -0.022105 -0.478947
                        CHANNELS 3 Zrotation Xrotation Yrotation
                        JOINT RightHandRing2
                        {
                          OFFSET -3.44238 0 0
                          CHANNELS 3 Zrotation Xrotation Yrotation
                          JOINT RightHandRing3
                          {
                            OFFSET -2.3881 0 0
                            CHANNELS 3 Zrotation Xrotation Yrotation
                            End Site
                            {
                              OFFSET -1.857 0 0
                            }
                          }
                        }
                      }
                    }
                    JOINT RightInHandPinky
                    {
                      OFFSET -3.16105 0.469368 -1.20179
                      CHANNELS 3 Zrotation Xrotation Yrotation
                      JOINT RightHandPinky1
                      {
                        OFFSET -4.14105 -0.022105 -1.09053
                        CHANNELS 3 Zrotation Xrotation Yrotation
                        JOINT RightHandPinky2
                        {
                          OFFSET -2.75653 0 0
                          CHANNELS 3 Zrotation Xrotation Yrotation
                          JOINT RightHandPinky3
                          {
                            OFFSET -1.74189 0 0
                            CHANNELS 3 Zrotation Xrotation Yrotation
                            End Site
                            {
                              OFFSET -1.645 0 0
                            }
                          }
                        }
                      }
                    }
                  }
                }
              }
            }
            JOINT LeftShoulder
            {
              OFFSET 3.26179 6.89719 -0.0373062
              CHANNELS 3 Zrotation Xrotation Yrotation
              JOINT LeftArm
              {
                OFFSET 12.4839 0.0196156 -0.0323257
                CHANNELS 3 Zrotation Xrotation Yrotation
                JOINT LeftForeArm
                {
                  OFFSET 26.5039 -0.120667 0.247609
                  CHANNELS 3 Zrotation Xrotation Yrotation
                  JOINT LeftHand
                  {
                    OFFSET 25.9984 -0.032285 0.00286418
                    CHANNELS 3 Zrotation Xrotation Yrotation
                    JOINT LeftHandThumb1
                    {
                      OFFSET 2.48905 0.190105 3.12053
                      CHANNELS 3 Zrotation Xrotation Yrotation
                      JOINT LeftHandThumb2
                      {
                        OFFSET 3.68274 0 0
                        CHANNELS 3 Zrotation Xrotation Yrotation
                        JOINT LeftHandThumb3
                        {
                          OFFSET 2.55832 0 0
                          CHANNELS 3 Zrotation Xrotation Yrotation
                          End Site
                          {
                            OFFSET 2.194 0 0
                          }
                        }
                      }
                    }
                    JOINT LeftInHandIndex
                    {
                      OFFSET 3.22368 0.508421 1.97842
                      CHANNELS 3 Zrotation Xrotation Yrotation
                      JOINT LeftHandIndex1
                      {
                        OFFSET 5.21684 -0.091368 0.999158
                        CHANNELS 3 Zrotation Xrotation Yrotation
                        JOINT LeftHandIndex2
                        {
                          OFFSET 3.61937 0 0
                          CHANNELS 3 Zrotation Xrotation Yrotation
                          JOINT LeftHandIndex3
                          {
                            OFFSET 2.0521 0 0
                            CHANNELS 3 Zrotation Xrotation Yrotation
                            End Site
                            {
                              OFFSET 1.805 0 0
                            }
                          }
                        }
                      }
                    }
                    JOINT LeftInHandMiddle
                    {
                      OFFSET 3.38211 0.517263 0.756737
                      CHANNELS 3 Zrotation Xrotation Yrotation
                      JOINT LeftHandMiddle1
                      {
                        OFFSET 5.17411 -0.084 0.313895
                        CHANNELS 3 Zrotation Xrotation Yrotation
                        JOINT LeftHandMiddle2
                        {
                          OFFSET 3.94947 0 0
                          CHANNELS 3 Zrotation Xrotation Yrotation
                          JOINT LeftHandMiddle3
                          {
                            OFFSET 2.47579 0 0
                            CHANNELS 3 Zrotation Xrotation Yrotation
                            End Site
                            {
                              OFFSET 1.975 0 0
                            }
                          }
                        }
                      }
                    }
                    JOINT LeftInHandRing
                    {
                      OFFSET 3.36516 0.537895 -0.128947
                      CHANNELS 3 Zrotation Xrotation Yrotation
                      JOINT LeftHandRing1
                      {
                        OFFSET 4.63474 -0.022105 -0.478947
                        CHANNELS 3 Zrotation Xrotation Yrotation
                        JOINT LeftHandRing2
                        {
                          OFFSET 3.44238 0 0
                          CHANNELS 3 Zrotation Xrotation Yrotation
                          JOINT LeftHandRing3
                          {
                            OFFSET 2.3881 0 0
                            CHANNELS 3 Zrotation Xrotation Yrotation
                            End Site
                            {
                              OFFSET 1.857 0 0
                            }
                          }
                        }
                      }
                    }
                    JOINT LeftInHandPinky
                    {
                      OFFSET 3.16105 0.469368 -1.20179
                      CHANNELS 3 Zrotation Xrotation Yrotation
                      JOINT LeftHandPinky1
                      {
                        OFFSET 4.14105 -0.022105 -1.09053
                        CHANNELS 3 Zrotation Xrotation Yrotation
                        JOINT LeftHandPinky2
                        {
                          OFFSET 2.75653 0 0
                          CHANNELS 3 Zrotation Xrotation Yrotation
                          JOINT LeftHandPinky3
                          {
                            OFFSET 1.74189 0 0
                            CHANNELS 3 Zrotation Xrotation Yrotation
                            End Site
                            {
                              OFFSET 1.645 0 0
                            }
                          }
                        }
                      }
                    }
                  }
                }
              }
            }
          }
        }
      }
    }
  }
}
MOTION
Frames:	4
Frame Time:	0.00833333
0 0 0 0 0 -0 23.9941 11.2383 -72.894 -26.8939 -53.6798 -27.5223 -1.32081 25.9743 -10.7065 13.9826 8.69223 28.2589 22.2357 -44.7835 10.1954 -0.627598 37.1638 3.30136 -14.7994 -16.0314 -24.6673 -7.42755 12.3885 14.2799 -1.56789 3.22728 3.3734 -2.61687 5.18691 5.4969 -0.357146 -0.161213 -0.26651 -0.357473 -0.162443 -0.266143 -6.57935 -3.0468 -4.72155 3.16398 -8.86368 16.6417 78.7204 -6.69752 43.6134 52.1894 -48.7523 50.5751 15.6182 -18.4803 -26.8001 28.184 10.7294 19.1592 -1.67204e-14 7.05686e-15 -10 -2.33593e-14 6.03808e-15 -10 6.36111e-15 -6.55989e-15 3.97569e-16 19.9818 0.871897 2.3964 24 1.72943e-14 9.92432e-14 20 3.29237e-15 -3.69491e-14 6.36111e-15 -6.55989e-15 3.97569e-16 20 1.12313e-14 3.85642e-14 24 2.13694e-14 1.04958e-13 20 -1.5704e-14 -4.21423e-14 6.36111e-15 -6.55989e-15 3.97569e-16 19.9748 -1.02565 -2.81938 24 2.44505e-14 1.02573e-13 20 -6.75868e-15 -3.10104e-14 6.36111e-15 -6.55989e-15 3.97569e-16 19.7815 -3.00948 -8.30515 24 2.18663e-14 8.26944e-14 20 7.95139e-16 -2.22639e-14 13.2465 -12.9556 -33.5939 -29.69 32.9889 -73.2651 8.21621 -46.9466 8.94467 -21.8093 -19.2781 11.2197 -28.184 10.7294 -19.1592 1.13713e-14 -9.54166e-15 10 2.47805e-14 -1.23246e-14 10 9.54166e-15 0 -0 -19.9818 0.871897 -2.3964 -24 -2.38542e-15 2.06736e-14 -20 -2.43511e-15 1.90833e-14 9.54166e-15 0 -0 -20 -1.19271e-15 1.19271e-14 -24 -7.95139e-16 2.14687e-14 -20 -5.73991e-15 2.78299e-14 9.54166e-15 0 -0 -19.9748 -1.02565 2.81938 -24 -7.95139e-16 1.74931e-14 -20 -4.32357e-15 2.5842e-14 9.54166e-15 0 -0 -19.7815 -3.00948 8.30515 -24 4.82053e-15 2.37548e-14 -20 -9.42053e-15 3.68746e-14 
0 0 0 0 0 -0 23.9545 11.1923 -73.153 -26.732 -53.7054 -27.3468 -1.30026 25.9026 -10.6999 13.9767 8.80262 28.396 22.3142 -44.7053 10.3059 -0.714602 37.2743 3.42176 -14.7065 -16.0989 -24.5862 -7.33843 12.3513 14.0979 -1.54996 3.21091 3.33003 -2.58766 5.16011 5.42901 -0.366515 -0.161214 -0.239971 -0.366851 -0.162444 -0.239586 -6.7344 -3.02075 -4.24843 3.20484 -8.6623 16.4311 79.2296 -7.11864 43.2374 53.2436 -48.0397 52.2564 15.3262 -18.5006 -27.0397 28.184 10.7294 19.1592 -1.71761e-14 4.47266e-15 -10 -3.34619e-14 1.05604e-14 -10 6.36111e-15 -3.23025e-15 8.94531e-16 19.9818 0.871897 2.3964 24 -2.68359e-15 1.78906e-15 20 2.5842e-15 -9.54166e-15 6.36111e-15 -3.23025e-15 8.94531e-16 20 9.93923e-17 5.46658e-15 24 -8.32411e-15 2.0773e-14 20 -1.41137e-14 -6.55989e-15 6.36111e-15 -3.23025e-15 8.94531e-16 19.9748 -1.02565 -2.81938 24 1.30204e-14 4.29375e-14 20 -3.18055e-15 -1.27222e-14 6.36111e-15 -3.23025e-15 8.94531e-16 19.7815 -3.00948 -8.30515 24 1.59028e-14 4.13472e-14 20 1.19271e-14 8.74653e-15 13.2684 -12.9444 -33.8328 -29.7531 32.9793 -73.2291 8.12023 -45.4935 8.54031 -21.9276 -19.1911 11.1993 -28.184 10.7294 -19.1592 1.64285e-14 -1.59028e-15 10 7.02006e-15 -3.18055e-15 10 6.36111e-15 3.97569e-16 3.97569e-16 -19.9818 0.871897 -2.3964 -24 -5.96354e-16 1.31198e-14 -20 -2.39784e-15 1.39149e-14 6.36111e-15 3.97569e-16 3.97569e-16 -20 1.19271e-15 1.2921e-14 -24 -6.95746e-16 1.31198e-14 -20 -9.93923e-16 5.56597e-15 6.36111e-15 3.97569e-16 3.97569e-16 -19.9748 -1.02565 2.81938 -24 -4.72114e-15 1.16289e-14 -20 -1.00635e-15 4.77083e-15 6.36111e-15 3.97569e-16 3.97569e-16 -19.7815 -3.00948 8.30515 -24 0 9.54166e-15 -20 -3.21783e-15 9.93923e-15 
0 0 0 0 0 -0 23.9097 11.1457 -73.411 -26.5706 -53.732 -27.1832 -1.28394 25.838 -10.6862 13.9686 8.91048 28.5342 22.3814 -44.613 10.3996 -0.806082 37.3658 3.54131 -14.5998 -16.1608 -24.4897 -7.24386 12.3183 13.9033 -1.5308 3.19525 3.28357 -2.5564 5.13438 5.35611 -0.376905 -0.161214 -0.212831 -0.377266 -0.162444 -0.212427 -6.90815 -2.9914 -3.76465 3.25904 -8.46431 16.2116 79.7485 -7.58176 42.8434 54.1639 -47.2803 53.8008 15.1462 -18.6247 -27.0962 28.184 10.7294 19.1592 -4.40748e-15 -1.2424e-15 -10 -6.19766e-15 6.34869e-15 -10 -3.04146e-31 3.13086e-15 5.56597e-15 19.9818 0.871897 2.3964 24 -5.46658e-15 -2.98177e-14 20 9.14409e-15 8.34896e-15 -3.04146e-31 3.13086e-15 5.56597e-15 20 2.60905e-15 -1.23246e-14 24 -2.23881e-14 -4.67144e-14 20 -1.38155e-14 5.56597e-15 -3.04146e-31 3.13086e-15 5.56597e-15 19.9748 -1.02565 -2.81938 24 -8.54774e-15 -4.8901e-14 20 -1.98785e-16 5.96354e-16 -3.04146e-31 3.13086e-15 5.56597e-15 19.7815 -3.00948 -8.30515 24 3.18055e-15 -9.54166e-15 20 6.36111e-15 4.77083e-15 13.286 -12.9409 -34.085 -29.8791 32.9331 -73.1023 7.95317 -43.9748 8.02175 -22.0377 -19.1171 11.1634 -28.184 10.7294 -19.1592 8.41226e-16 -4.77083e-15 10 2.26599e-14 -2.98177e-16 10 3.18055e-15 7.82715e-16 1.86361e-17 -19.9818 0.871897 -2.3964 -24 1.49089e-16 2.52457e-14 -20 -2.05618e-15 1.61016e-14 3.18055e-15 7.82715e-16 1.86361e-17 -20 1.27968e-15 1.16538e-14 -24 -1.06847e-15 7.23079e-15 -20 -1.21445e-15 1.00262e-14 3.18055e-15 7.82715e-16 1.86361e-17 -19.9748 -1.02565 2.81938 -24 -3.97569e-15 8.34896e-15 -20 -9.75287e-16 1.88845e-14 3.18055e-15 7.82715e-16 1.86361e-17 -19.7815 -3.00948 8.30515 -24 0 1.15295e-14 -20 -5.11871e-15 1.43125e-14 
0 0 0 0 0 -0 23.8759 11.0762 -73.7055 -26.3962 -53.7732 -26.9711 -1.25521 25.7725 -10.6713 13.9512 9.01425 28.6676 22.4019 -44.54 10.4646 -0.876843 37.5025 3.70226 -14.5173 -16.2613 -24.4026 -7.16268 12.2797 13.7164 -1.51493 3.17909 3.23847 -2.53046 5.10805 5.28494 -0.387962 -0.161214 -0.18463 -0.388342 -0.162444 -0.184226 -7.09395 -2.96311 -3.26233 3.31652 -8.26 15.9909 80.2362 -8.06512 42.4782 54.9638 -46.4108 55.2919 16.2 -20.2567 -22.6206 28.184 10.7294 19.1592 -2.42032e-14 1.09829e-14 -10 -4.15772e-14 1.71949e-14 -10 6.36111e-15 -4.37326e-15 -0 19.9818 0.871897 2.3964 24 -9.14409e-15 -3.97569e-14 20 -1.03368e-14 -4.53229e-14 6.36111e-15 -4.37326e-15 -0 20 9.93923e-15 1.98785e-14 24 -1.66979e-14 -3.18055e-14 20 -2.22639e-14 -4.6118e-14 6.36111e-15 -4.37326e-15 -0 19.9748 -1.02565 -2.81938 24 -4.37326e-15 5.56597e-15 20 -3.18055e-15 -3.18055e-14 6.36111e-15 -4.37326e-15 -0 19.7815 -3.00948 -8.30515 24 3.11098e-14 1.61612e-13 20 1.39149e-15 -2.32578e-14 13.3152 -12.9354 -34.3578 -26.2548 34.1762 -77.7058 11.316 -45.3222 11.9214 -22.1886 -19.0414 11.0916 -28.184 10.7294 -19.1592 2.52368e-15 -1.43125e-14 10 8.66746e-15 -1.25234e-14 10 6.36111e-15 7.95139e-16 -0 -19.9818 0.871897 -2.3964 -24 -1.19271e-15 1.07344e-14 -20 -1.30452e-15 2.06736e-14 6.36111e-15 7.95139e-16 -0 -20 2.38542e-15 1.25234e-14 -24 2.98177e-16 5.56597e-15 -20 -1.00635e-15 1.11319e-14 6.36111e-15 7.95139e-16 -0 -19.9748 -1.02565 2.81938 -24 -4.96962e-15 1.11319e-14 -20 -2.13694e-15 1.70955e-14 6.36111e-15 7.95139e-16 -0 -19.7815 -3.00948 8.30515 -24 -3.97569e-16 1.35174e-14 -20 -3.47873e-15 2.38542e-14 
